<svg width="24" height="24" viewBox="0 0 24 24" fill="none" xmlns="http://www.w3.org/2000/svg">
<g id="beach_access_24px">
<path id="icon/places/beach_access_24px" fill-rule="evenodd" clip-rule="evenodd" d="M13.1157 3.00122C10.5357 3.00122 7.95567 3.98122 5.97567 5.95122L5.96567 5.96122C2.01567 9.91122 2.01567 16.3212 5.96567 20.2712L20.2657 5.96122C18.2957 3.99122 15.7057 3.00122 13.1157 3.00122ZM20.9969 19.5704L19.5686 20.9988L13.1269 14.5571L14.5552 13.1288L20.9969 19.5704ZM4.99567 13.1212C4.99567 14.6112 5.39567 16.0312 6.13567 17.2712L7.52567 15.8912C6.34567 14.2412 5.64567 12.3612 5.45567 10.4512C5.15567 11.3012 4.99567 12.1912 4.99567 13.1212ZM8.97567 14.4312C7.62567 12.3812 7.11567 9.93122 7.59567 7.60122C8.17567 7.48122 8.75567 7.42122 9.34567 7.42122C11.1457 7.42122 12.8957 7.97122 14.4257 8.98122L8.97567 14.4312ZM13.1157 5.00122C12.1857 5.00122 11.2957 5.16122 10.4457 5.46122C12.3557 5.65122 14.2257 6.35122 15.8757 7.53122L17.2657 6.14122C16.0257 5.40122 14.6057 5.00122 13.1157 5.00122Z" fill="#454545"/>
</g>
</svg>
